# xmcd
#
# Track frame offsets:
#     150
#     16399
#     34921
#     51814
#     64172
#     76217
#     95434
#     113251
#     131151
#     147712
#     164707
#     176737
#
# Disc length: 2566
#
# Revision: 1
# Processed by: cddbd v1.5.1PL0 Copyright (c) Steve Scherf et al.
# Submitted via: BF_CDLibrary 0.1 (Bob Faist CD Library)
#
DISCID=a70a040c
DTITLE=Bastard Sons of Johnny Cash - Mile Markers
DYEAR=2005
DGENRE=Country
TTITLE0=Austin Night
TTITLE1=The Road to Bakersfield
TTITLE2=California Sky
TTITLE3=Borderline of the Heart
TTITLE4=King of the World
TTITLE5=Radio Girl
TTITLE6=Night Comes Down
TTITLE7=No Easy Road
TTITLE8=Lonely Tonight
TTITLE9=Under Your Spell
TTITLE10=Restless Heart
TTITLE11=The Pride of Abeline
EXTD=Advance Release
EXTT0=
EXTT1=
EXTT2=
EXTT3=
EXTT4=
EXTT5=
EXTT6=
EXTT7=
EXTT8=
EXTT9=
EXTT10=
EXTT11=
PLAYORDER=
